# xmcd
#
# Track frame offsets: 
#        225
#        12739
#        20879
#        30216
#        39275
#        48119
#        57908
#        66892
#        79061
#        90888
#        100820
#        109969
#        119653
#        128540
#        138095
#        148758
#        157046
#        166252
#        179521
#        191453
#        201639
#        215303
#        224047
#        234831
#        243230
#        251824
#        264663
#        277394
#        286725
#        294404
#        307315
#        317222
#        328805
#        339226
#
# Disc length: 4656 seconds
#
# Revision: 0
# Processed by: cddbd v1.5.1PL0 Copyright (c) Steve Scherf et al.
# Submitted via: ExactAudioCopy v0.95a5
#
DISCID=08122d22
DTITLE=Beatles - Complete Edition CD 2
DYEAR=1963
DGENRE=Oldies
TTITLE0=Baby it´s you
TTITLE1=Misery
TTITLE2=Thank you girl
TTITLE3=I´ll be on my way
TTITLE4=From me to you
TTITLE5=Sure to fall
TTITLE6=Young blood
TTITLE7=Clarabella
TTITLE8=Carol
TTITLE9=Crying, waiting, hoping
TTITLE10=Some other guy
TTITLE11=All my loving
TTITLE12=I got to find my baby
TTITLE13=I´ll get you
TTITLE14=She loves you
TTITLE15=Lend me your comb
TTITLE16=Soldier of love
TTITLE17=That´s all right (Mama)
TTITLE18=Lonesome tears in my eyes
TTITLE19=Memphis, Tenessee
TTITLE20=Nothin´ Shakin´ 
TTITLE21=So how come (No one loves me)
TTITLE22=Sweet little sixteen
TTITLE23=The hippy hippy shake
TTITLE24=Glad all over
TTITLE25=I got a woman
TTITLE26=I just don´t understand
TTITLE27=I´m gonna sit right down and cry
TTITLE28=The honeymoon song
TTITLE29=To know her is to love her
TTITLE30=It won´t be long
TTITLE31=Please Mr. Postman
TTITLE32=Roll over Beethoven
TTITLE33=Till there was you
EXTD=
EXTT0=
EXTT1=
EXTT2=
EXTT3=
EXTT4=
EXTT5=
EXTT6=
EXTT7=
EXTT8=
EXTT9=
EXTT10=
EXTT11=
EXTT12=
EXTT13=
EXTT14=
EXTT15=
EXTT16=
EXTT17=
EXTT18=
EXTT19=
EXTT20=
EXTT21=
EXTT22=
EXTT23=
EXTT24=
EXTT25=
EXTT26=
EXTT27=
EXTT28=
EXTT29=
EXTT30=
EXTT31=
EXTT32=
EXTT33=
PLAYORDER=
